<svg t="1678246249679" class="icon" viewBox="0 0 1024 1024" version="1.1"
    xmlns="http://www.w3.org/2000/svg" p-id="5654" width="200" height="200">
    <path
        d="M211.406452 366.658065l277.470967-122.219355c16.516129-6.606452 36.335484-6.606452 52.851613 0l277.470968 122.219355c16.516129 6.606452 23.122581 26.425806 16.516129 42.941935-3.303226 6.606452-9.909677 13.212903-16.516129 16.516129l-277.470968 122.219355c-16.516129 6.606452-36.335484 6.606452-52.851613 0l-277.470967-122.219355c-16.516129-6.606452-23.122581-26.425806-16.516129-42.941935 3.303226-6.606452 9.909677-13.212903 16.516129-16.516129z"
        fill="#D5D5D5" p-id="5655" id="a1"></path>
    <path
        d="M515.303226 987.664516V637.522581c0-26.425806-16.516129-49.548387-39.63871-59.458065l-267.56129-118.916129c-16.516129-6.606452-36.335484 0-42.941936 16.516129-3.303226 3.303226-3.303226 9.909677-3.303225 13.212903v350.141936c0 26.425806 16.516129 49.548387 39.638709 59.458064l267.561291 118.916129c16.516129 6.606452 36.335484 0 42.941935-16.516129 3.303226-6.606452 3.303226-9.909677 3.303226-13.212903z"
        fill="#A7A7A7" p-id="5656" id="a2"></path>
    <path
        d="M548.335484 987.664516V617.703226c0-26.425806 16.516129-49.548387 39.63871-59.458065l231.225806-95.793548c16.516129-6.606452 36.335484 0 42.941935 16.516129 3.303226 3.303226 3.303226 9.909677 3.303226 13.212903v369.96129c0 26.425806-16.516129 49.548387-39.638709 59.458065l-231.225807 99.096774c-16.516129 6.606452-36.335484 0-42.941935-16.516129-3.303226-6.606452-3.303226-9.909677-3.303226-16.516129z"
        fill="#EBEBEB" p-id="5657" id="a3"></path>
</svg>