<svg class="mr-1.5 text-gray-500" xmlns="http://www.w3.org/2000/svg"
    xmlns:xlink="http://www.w3.org/1999/xlink" aria-hidden="true" focusable="false" role="img"
    width="1em" height="1em" preserveAspectRatio="xMidYMid meet" viewBox="0 0 25 25"
    fill="currentColor">
    <path opacity="0.2"
        d="M12.5002 2.0835C11.1322 2.0835 9.77769 2.35293 8.51388 2.87642C7.25007 3.3999 6.10174 4.16719 5.13447 5.13447C3.18096 7.08797 2.0835 9.73749 2.0835 12.5002C2.0835 15.2628 3.18096 17.9124 5.13447 19.8659C6.10174 20.8331 7.25007 21.6004 8.51388 22.1239C9.77769 22.6474 11.1322 22.9168 12.5002 22.9168C15.2628 22.9168 17.9124 21.8194 19.8659 19.8659C21.8194 17.9124 22.9168 15.2628 22.9168 12.5002C22.9168 6.73975 18.2293 2.0835 12.5002 2.0835Z"></path>
    <path opacity="0.5"
        d="M12.4997 17.8998C11.3229 17.8998 10.1726 17.5509 9.19412 16.8971C8.21567 16.2433 7.45305 15.314 7.00272 14.2268C6.55238 13.1396 6.43455 11.9433 6.66413 10.7891C6.89371 9.63497 7.46039 8.5748 8.2925 7.74269C9.1246 6.91058 10.1848 6.34391 11.3389 6.11433C12.4931 5.88475 13.6894 6.00258 14.7766 6.45291C15.8638 6.90325 16.7931 7.66586 17.4469 8.64432C18.1007 9.62278 18.4496 10.7731 18.4496 11.9499C18.4478 13.5274 17.8204 15.0397 16.7049 16.1551C15.5895 17.2706 14.0772 17.898 12.4997 17.8998V17.8998Z"></path>
    <path fill-rule="evenodd" clip-rule="evenodd"
        d="M20.1479 19.4813C20.0539 19.2758 19.9515 19.0737 19.8409 18.8755C19.139 17.618 18.1283 16.56 16.9043 15.8013C16.3534 16.4551 15.6664 16.9807 14.8912 17.3413C14.1159 17.7018 13.2713 17.8886 12.4164 17.8886C11.5614 17.8886 10.7168 17.7018 9.94155 17.3413C9.16634 16.9807 8.47928 16.4551 7.92843 15.8013C6.70438 16.56 5.69374 17.618 4.99182 18.8755C4.88129 19.0736 4.77899 19.2755 4.68506 19.4808C4.80345 19.6119 4.92544 19.7403 5.05096 19.8659C6.01824 20.8331 7.16656 21.6004 8.43037 22.1239C9.69418 22.6474 11.0487 22.9168 12.4167 22.9168C15.1793 22.9168 17.8288 21.8194 19.7824 19.8659C19.9077 19.7405 20.0296 19.6122 20.1479 19.4813Z"></path>
</svg>